# Blender v2.79 (sub 0) OBJ File: ''
# www.blender.org
mtllib cena_nova_difuso.mtl
o Cube_Cube.002
v -0.047586 -0.552281 0.132228
v -0.047586 1.000148 0.132228
v 0.255038 -0.552281 -0.459170
v 0.255038 1.000148 -0.459170
v 0.543812 -0.552281 0.434853
v 0.543812 1.000148 0.434853
v 0.846436 -0.552281 -0.156545
v 0.846436 1.000148 -0.156545
vn -0.8902 0.0000 -0.4555
vn 0.4555 0.0000 -0.8902
vn 0.8902 0.0000 0.4555
vn -0.4555 0.0000 0.8902
vn 0.0000 -1.0000 -0.0000
vn 0.0000 1.0000 -0.0000
usemtl None
s off
f 2//1 3//1 1//1
f 4//2 7//2 3//2
f 8//3 5//3 7//3
f 6//4 1//4 5//4
f 7//5 1//5 3//5
f 4//6 6//6 8//6
f 2//1 4//1 3//1
f 4//2 8//2 7//2
f 8//3 6//3 5//3
f 6//4 2//4 1//4
f 7//5 5//5 1//5
f 4//6 2//6 6//6
o teto_Plane.006_Teto_teto_teto_Plane.006_Teto_teto_teto.001
v -0.999947 -1.000498 -1.381987
v 1.000053 -1.000391 0.618013
v 1.000053 -1.000391 -1.381987
v -0.999947 -1.000498 0.618013
vn -0.0001 1.0000 0.0000
usemtl teto.001
s 1
f 9//7 10//7 11//7
f 9//7 12//7 10//7
o right_wall_Plane.002_wall3_right_wall_right_wall_Plane.002_.000
v -0.999947 -1.000498 0.618013
v -1.000053 0.999502 -1.381987
v -1.000053 0.999502 0.618012
v -0.999947 -1.000498 -1.381987
vn 1.0000 0.0001 0.0000
usemtl right_wall.001
s 1
f 13//8 14//8 15//8
f 13//8 16//8 14//8
o light_Plane.004_Plane_ligth_light_Plane.004_Plane_ligth_lig.000
v 0.367725 -0.981443 -0.788278
v -0.367621 -0.981482 -0.052931
v 0.367725 -0.981443 -0.052931
v -0.367621 -0.981482 -0.788278
vn -0.0001 1.0000 0.0000
usemtl ligth.001
s 1
f 17//9 18//9 19//9
f 17//9 20//9 18//9
o left_wall_Plane.001_wall1_left_wall_left_wall_Plane.001_wal.000
v 0.999947 0.999609 0.618012
v 1.000053 -1.000391 -1.381987
v 1.000053 -1.000391 0.618013
v 0.999947 0.999609 -1.381987
vn -1.0000 -0.0001 -0.0000
usemtl left_wall.001
s 1
f 21//10 22//10 23//10
f 21//10 24//10 22//10
o floor_Plane_Floor_floor_floor_Plane_Floor_floor_floor.001
v -1.000053 0.999502 0.618012
v 0.999947 0.999609 -1.381987
v 0.999947 0.999609 0.618012
v -1.000053 0.999502 -1.381987
vn 0.0001 -1.0000 -0.0000
usemtl floor.001
s 1
f 25//11 26//11 27//11
f 25//11 28//11 26//11
o back_wall_Plane.003_wall2_back_wall.001_back_wall_Plane.003.000
v -1.000053 0.999502 -1.381987
v 1.000053 -1.000391 -1.381987
v 0.999947 0.999609 -1.381987
v -0.999947 -1.000498 -1.381987
vn 0.0000 0.0000 1.0000
usemtl back_wall.001
s 1
f 29//12 30//12 31//12
f 29//12 32//12 30//12
