# Blender v2.79 (sub 0) OBJ File: ''
# www.blender.org
mtllib cube.mtl
o Cube_Cube.001
v -0.410485 0.262289 -0.137049
v -0.411441 0.994500 -0.136002
v -0.411876 0.263334 -0.869260
v -0.412833 0.995545 -0.868213
v 0.321726 0.263247 -0.138439
v 0.320770 0.995458 -0.137392
v 0.320334 0.264292 -0.870650
v 0.319378 0.996503 -0.869603
vn -1.0000 -0.0013 0.0019
vn -0.0019 0.0014 -1.0000
vn 1.0000 0.0013 -0.0019
vn 0.0019 -0.0014 1.0000
vn 0.0013 -1.0000 -0.0014
vn -0.0013 1.0000 0.0014
usemtl Material.002
s off
f 2//1 3//1 1//1
f 4//2 7//2 3//2
f 8//3 5//3 7//3
f 6//4 1//4 5//4
f 7//5 1//5 3//5
f 4//6 6//6 8//6
f 2//1 4//1 3//1
f 4//2 8//2 7//2
f 8//3 6//3 5//3
f 6//4 2//4 1//4
f 7//5 5//5 1//5
f 4//6 2//6 6//6
