# Blender v2.79 (sub 0) OBJ File: ''
# www.blender.org
mtllib light_cube.mtl
o None_Cube.001_Material.001
v 0.359326 -0.971187 -0.779879
v 0.359327 -0.983902 -0.061330
v 0.359327 -0.971187 -0.061330
v -0.359223 -0.983941 -0.061330
v -0.359223 -0.971226 -0.061330
v 0.393882 -0.971185 -0.026775
v 0.393882 -0.971186 -0.814434
v 0.393883 -1.002677 -0.814434
v -0.393776 -1.002718 -0.026775
v -0.393777 -1.002719 -0.814434
v -0.393778 -0.971227 -0.026775
v -0.393778 -0.971228 -0.814434
v -0.359223 -0.971226 -0.779879
v 0.359326 -0.983902 -0.779879
v -0.359223 -0.983941 -0.779879
v 0.393883 -1.002676 -0.026775
vn -1.0000 -0.0000 0.0000
vn -0.0000 0.0000 -1.0000
vn -0.0000 1.0000 -0.0000
vn -0.0001 1.0000 -0.0000
vn 0.0001 -1.0000 0.0000
vn -1.0000 -0.0001 0.0000
vn -0.0000 -0.0000 1.0000
vn 1.0000 0.0000 -0.0000
usemtl Material.001
s 1
f 1//1 2//1 3//1
f 3//2 4//2 5//2
f 1//3 6//4 7//3
f 8//5 9//5 10//5
f 10//1 11//6 12//1
f 9//7 6//7 11//7
f 6//8 8//8 7//8
f 12//2 8//2 10//2
f 5//3 12//4 11//3
f 13//7 14//7 1//7
f 5//8 15//8 13//8
f 1//1 14//1 2//1
f 3//2 2//2 4//2
f 7//3 12//4 13//4
f 1//3 3//4 6//4
f 7//3 13//4 1//3
f 8//5 16//5 9//5
f 10//1 9//6 11//6
f 9//7 16//7 6//7
f 6//8 16//8 8//8
f 12//2 7//2 8//2
f 11//3 6//4 3//4
f 5//3 13//4 12//4
f 11//3 3//4 5//3
f 13//7 15//7 14//7
f 5//8 4//8 15//8
