# Blender v2.79 (sub 0) OBJ File: 'entire_scene1.obj'
# www.blender.org
mtllib entire_scene1.mtl
o None_Cube.001_Material.000
v 0.359326 -0.971187 -0.779879
v 0.359327 -0.983902 -0.061330
v 0.359327 -0.971187 -0.061330
v -0.359223 -0.983941 -0.061330
v -0.359223 -0.971226 -0.061330
v 0.393882 -0.971185 -0.026775
v 0.393882 -0.971186 -0.814434
v 0.393883 -1.002677 -0.814434
v -0.393776 -1.002718 -0.026775
v -0.393777 -1.002719 -0.814434
v -0.393778 -0.971227 -0.026775
v -0.393778 -0.971228 -0.814434
v -0.359223 -0.971226 -0.779879
v 0.359326 -0.983902 -0.779879
v -0.359223 -0.983941 -0.779879
v 0.393883 -1.002676 -0.026775
vn -1.0000 -0.0000 0.0000
vn -0.0000 0.0000 -1.0000
vn -0.0000 1.0000 -0.0000
vn -0.0001 1.0000 -0.0000
vn 0.0001 -1.0000 0.0000
vn -1.0000 -0.0001 0.0000
vn -0.0000 -0.0000 1.0000
vn 1.0000 0.0000 -0.0000
usemtl Material.002
s 1
f 1//1 2//1 3//1
f 3//2 4//2 5//2
f 1//3 6//4 7//3
f 8//5 9//5 10//5
f 10//1 11//6 12//1
f 9//7 6//7 11//7
f 6//8 8//8 7//8
f 12//2 8//2 10//2
f 5//3 12//4 11//3
f 13//7 14//7 1//7
f 5//8 15//8 13//8
f 1//1 14//1 2//1
f 3//2 2//2 4//2
f 7//3 12//4 13//4
f 1//3 3//4 6//4
f 7//3 13//4 1//3
f 8//5 16//5 9//5
f 10//1 9//6 11//6
f 9//7 16//7 6//7
f 6//8 16//8 8//8
f 12//2 7//2 8//2
f 11//3 6//4 3//4
f 5//3 13//4 12//4
f 11//3 3//4 5//3
f 13//7 15//7 14//7
f 5//8 4//8 15//8
o back_wall_Plane.003_wall2_back_wall.001_back_wall_Plane.003_wal
v -1.000053 0.999502 -1.381987
v 1.000053 -1.000391 -1.381987
v 0.999947 0.999609 -1.381987
v -0.999947 -1.000498 -1.381987
vn 0.0000 0.0000 1.0000
usemtl back_wall.001
s 1
f 17//9 18//9 19//9
f 17//9 20//9 18//9
o floor_Plane_Floor_floor_floor_Plane_Floor_floor_floor
v -1.000053 0.999502 0.618012
v 0.999947 0.999609 -1.381987
v 0.999947 0.999609 0.618012
v -1.000053 0.999502 -1.381987
vn 0.0001 -1.0000 -0.0000
usemtl floor.001
s 1
f 21//10 22//10 23//10
f 21//10 24//10 22//10
o left_wall_Plane.001_wall1_left_wall_left_wall_Plane.001_wall1_l
v 0.999947 0.999609 0.618012
v 1.000053 -1.000391 -1.381987
v 1.000053 -1.000391 0.618013
v 0.999947 0.999609 -1.381987
vn -1.0000 -0.0001 -0.0000
usemtl left_wall.001
s 1
f 25//11 26//11 27//11
f 25//11 28//11 26//11
o light_Plane.004_Plane_ligth_light_Plane.004_Plane_ligth_ligth
v 0.367725 -0.981443 -0.788278
v -0.367621 -0.981482 -0.052931
v 0.367725 -0.981443 -0.052931
v -0.367621 -0.981482 -0.788278
vn -0.0001 1.0000 0.0000
usemtl ligth.001
s 1
f 29//12 30//12 31//12
f 29//12 32//12 30//12
o right_wall_Plane.002_wall3_right_wall_right_wall_Plane.002_wall
v -0.999947 -1.000498 0.618013
v -1.000053 0.999502 -1.381987
v -1.000053 0.999502 0.618012
v -0.999947 -1.000498 -1.381987
vn 1.0000 0.0001 0.0000
usemtl right_wall.001
s 1
f 33//13 34//13 35//13
f 33//13 36//13 34//13
o teto_Plane.006_Teto_teto_teto_Plane.006_Teto_teto_teto
v -0.999947 -1.000498 -1.381987
v 1.000053 -1.000391 0.618013
v 1.000053 -1.000391 -1.381987
v -0.999947 -1.000498 0.618013
vn -0.0001 1.0000 0.0000
usemtl teto.001
s 1
f 37//14 38//14 39//14
f 37//14 40//14 38//14
