# Blender v2.79 (sub 0) OBJ File: ''
# www.blender.org
mtllib tudo2.mtl
o teto_Plane.006_Teto_teto_teto_Plane.006_Teto_teto_teto
v -0.999947 -1.000498 -1.381987
v 1.000053 -1.000391 0.618013
v 1.000053 -1.000391 -1.381987
v -0.999947 -1.000498 0.618013
vn -0.0001 1.0000 0.0000
usemtl teto.001
s 1
f 1//1 2//1 3//1
f 1//1 4//1 2//1
o right_wall_Plane.002_wall3_right_wall_right_wall_Plane.002_wall
v -0.999947 -1.000498 0.618013
v -1.000053 0.999502 -1.381987
v -1.000053 0.999502 0.618012
v -0.999947 -1.000498 -1.381987
vn 1.0000 0.0001 0.0000
usemtl right_wall.001
s 1
f 5//2 6//2 7//2
f 5//2 8//2 6//2
o light_Plane.004_Plane_ligth_light_Plane.004_Plane_ligth_ligth
v 0.367725 -0.981443 -0.788278
v -0.367621 -0.981482 -0.052931
v 0.367725 -0.981443 -0.052931
v -0.367621 -0.981482 -0.788278
vn -0.0001 1.0000 0.0000
usemtl ligth
s 1
f 9//3 10//3 11//3
f 9//3 12//3 10//3
o left_wall_Plane.001_wall1_left_wall_left_wall_Plane.001_wall1_l
v 0.999947 0.999609 0.618012
v 1.000053 -1.000391 -1.381987
v 1.000053 -1.000391 0.618013
v 0.999947 0.999609 -1.381987
vn -1.0000 -0.0001 -0.0000
usemtl left_wall.001
s 1
f 13//4 14//4 15//4
f 13//4 16//4 14//4
o floor_Plane_Floor_floor_floor_Plane_Floor_floor_floor
v -1.000053 0.999502 0.618012
v 0.999947 0.999609 -1.381987
v 0.999947 0.999609 0.618012
v -1.000053 0.999502 -1.381987
vn 0.0001 -1.0000 -0.0000
usemtl floor.001
s 1
f 17//5 18//5 19//5
f 17//5 20//5 18//5
o back_wall_Plane.003_wall2_back_wall.001_back_wall_Plane.003_wal
v -1.000053 0.999502 -1.381987
v 1.000053 -1.000391 -1.381987
v 0.999947 0.999609 -1.381987
v -0.999947 -1.000498 -1.381987
vn 0.0000 0.0000 1.0000
usemtl back_wall.001
s 1
f 21//6 22//6 23//6
f 21//6 24//6 22//6
